<svg xmlns="http://www.w3.org/2000/svg" viewBox="0 0 232.39 232.39"><defs><style>.cls-1{fill:#fff;}</style></defs><g id="レイヤー_2" data-name="レイヤー 2"><g id="Logo"><path class="cls-1" d="M116.2,20.94c31,0,34.7.11,47,.67,11.33.52,17.48,2.41,21.58,4a36.06,36.06,0,0,1,13.36,8.7,36,36,0,0,1,8.69,13.36c1.59,4.09,3.48,10.24,4,21.57.56,12.26.68,15.93.68,47s-.12,34.7-.68,47c-.52,11.33-2.41,17.48-4,21.58a38.46,38.46,0,0,1-22.05,22.05c-4.1,1.59-10.25,3.48-21.58,4-12.25.56-15.92.68-46.95.68s-34.71-.12-47-.68c-11.33-.52-17.48-2.41-21.57-4a36,36,0,0,1-13.36-8.69,36.06,36.06,0,0,1-8.7-13.36c-1.59-4.1-3.48-10.25-4-21.58-.56-12.25-.67-15.93-.67-46.95s.11-34.7.67-47c.52-11.33,2.41-17.48,4-21.57a35.9,35.9,0,0,1,8.7-13.36,35.9,35.9,0,0,1,13.36-8.7c4.09-1.59,10.24-3.48,21.57-4,12.26-.56,15.93-.67,47-.67M116.2,0C84.64,0,80.68.13,68.29.7S47.47,3.23,40.08,6.1A57,57,0,0,0,19.5,19.5,57,57,0,0,0,6.1,40.08C3.23,47.47,1.26,55.92.7,68.29S0,84.64,0,116.2s.13,35.51.7,47.91,2.53,20.81,5.4,28.2a57,57,0,0,0,13.4,20.58,56.83,56.83,0,0,0,20.58,13.4c7.39,2.88,15.84,4.84,28.21,5.41s16.35.69,47.91.69,35.51-.13,47.91-.69,20.81-2.53,28.2-5.41a59.39,59.39,0,0,0,34-34c2.88-7.39,4.84-15.84,5.41-28.2s.69-16.36.69-47.91-.13-35.52-.69-47.91-2.53-20.82-5.41-28.21a56.83,56.83,0,0,0-13.4-20.58A57,57,0,0,0,192.31,6.1c-7.39-2.87-15.84-4.84-28.2-5.4S147.75,0,116.2,0Z"/><path class="cls-1" d="M116.2,56.53a59.67,59.67,0,1,0,59.67,59.67A59.66,59.66,0,0,0,116.2,56.53Zm0,98.4a38.74,38.74,0,1,1,38.73-38.73A38.74,38.74,0,0,1,116.2,154.93Z"/><circle class="cls-1" cx="178.22" cy="54.17" r="13.94"/></g></g></svg>