<svg xmlns="http://www.w3.org/2000/svg" viewBox="0 0 800.33 197.29"><defs><style>.cls-1{fill:#fff;}</style></defs><g id="レイヤー_2" data-name="レイヤー 2"><g id="レイヤー_1-2" data-name="レイヤー 1"><path class="cls-1" d="M480.45,99a45.75,45.75,0,0,1-4.93,8.77,41.16,41.16,0,0,1-20.92,15.33A43,43,0,0,1,441,125.26a41.39,41.39,0,0,1-17.2-3.65,44.62,44.62,0,0,1-14.06-10A47.67,47.67,0,0,1,396.84,78.8a46.93,46.93,0,0,1,3.46-18,47.63,47.63,0,0,1,9.43-14.69,44.46,44.46,0,0,1,14.06-10A41.24,41.24,0,0,1,441,32.47a44.54,44.54,0,0,1,14.12,2.17,40.42,40.42,0,0,1,20.73,15.47,48.51,48.51,0,0,1,4.84,8.7h9.81a57,57,0,0,0-7.19-14.57,48.51,48.51,0,0,0-25-18.63,53.52,53.52,0,0,0-17-2.62,49.74,49.74,0,0,0-20.71,4.4,53.55,53.55,0,0,0-16.93,12,58.13,58.13,0,0,0-11.36,61.21,56.78,56.78,0,0,0,11.36,17.78,53.21,53.21,0,0,0,16.93,12,49.6,49.6,0,0,0,20.71,4.41,51.71,51.71,0,0,0,16.39-2.56,49.56,49.56,0,0,0,25.2-18.47A54.83,54.83,0,0,0,490.49,99Z"/><path class="cls-1" d="M598.79,56.48a55.74,55.74,0,0,0-11.38-17.84,52.48,52.48,0,0,0-38.09-16.12,50.7,50.7,0,0,0-20.87,4.36,52.6,52.6,0,0,0-17.07,12,57.42,57.42,0,0,0-15.65,39.88,57.82,57.82,0,0,0,15.65,40,52.75,52.75,0,0,0,17.07,12,52.15,52.15,0,0,0,41.75,0,52.89,52.89,0,0,0,17-12,57.08,57.08,0,0,0,11.45-17.92,57.7,57.7,0,0,0,4.21-22.12A59.49,59.49,0,0,0,598.79,56.48Zm-8.61,40.6a47.12,47.12,0,0,1-9.47,14.82,43.51,43.51,0,0,1-14.12,9.93,43.11,43.11,0,0,1-34.54,0,43.45,43.45,0,0,1-14.13-9.93A47.86,47.86,0,0,1,505,78.77a47.56,47.56,0,0,1,12.95-33,43.45,43.45,0,0,1,14.13-9.93,41.9,41.9,0,0,1,17.27-3.61,43.39,43.39,0,0,1,31.51,13.34,45.64,45.64,0,0,1,9.42,14.77,49.07,49.07,0,0,1,3.41,18.42A47.68,47.68,0,0,1,590.18,97.08Z"/><path class="cls-1" d="M691.76,130.68h-10V104.19c0-5.29-1.4-9.32-4.2-12.06S670.29,88,664.05,88H622.31v42.68h-10V22.56h41.19c5.49,0,17.08.81,21.44,2.42A32.14,32.14,0,0,1,686,31.67,27.88,27.88,0,0,1,692.81,42c1.55,4,1.86,8.93,1.86,13.71,0,5.82-.83,10.48-3.42,15a29.5,29.5,0,0,1-10.91,10.76q11.37,6.69,11.37,22.73ZM659.53,78.41c6.44,0,12.7-1.81,17-4.74,5-3.41,8.76-7.44,8.76-18.59s-4-15.62-9-18.85C672.06,33.51,664.85,32,658.21,32h-35.9V78.41Z"/><path class="cls-1" d="M783.79,22.56V32H716.56V71.08h61v9.44h-61V121.1h67.23v9.58H706.51V22.56Z"/><path class="cls-1" d="M799.92,128a5.4,5.4,0,0,1-1.12,1.66,5.46,5.46,0,0,1-1.66,1.12,5.31,5.31,0,0,1-4.09,0,5.25,5.25,0,0,1-2.78-2.78,5.42,5.42,0,0,1-.41-2,5.26,5.26,0,0,1,.41-2,5.34,5.34,0,0,1,1.12-1.66,5.4,5.4,0,0,1,1.66-1.12,5.31,5.31,0,0,1,4.09,0,5.28,5.28,0,0,1,1.66,1.12,5.17,5.17,0,0,1,1.12,1.66,5.08,5.08,0,0,1,.41,2A5.23,5.23,0,0,1,799.92,128Zm-1-3.7a4.85,4.85,0,0,0-.89-1.36,4.6,4.6,0,0,0-1.34-.91,4.12,4.12,0,0,0-1.63-.32,4,4,0,0,0-1.63.32,4.35,4.35,0,0,0-1.34.91,4.67,4.67,0,0,0-.9,1.36,4.47,4.47,0,0,0,0,3.32,4.54,4.54,0,0,0,.9,1.36,4.18,4.18,0,0,0,1.34.91,4,4,0,0,0,1.63.33,4.13,4.13,0,0,0,1.63-.33,4.42,4.42,0,0,0,1.34-.91,4.71,4.71,0,0,0,.89-1.36,4.34,4.34,0,0,0,0-3.32Zm-1.21,4.42H796.5l-1-2h-1.4v2H793v-5.76h2.76a2,2,0,0,1,1.45.51,1.84,1.84,0,0,1,.53,1.38,1.8,1.8,0,0,1-.33,1.08,1.77,1.77,0,0,1-.87.67Zm-2-3a1.06,1.06,0,0,0,.61-.2.77.77,0,0,0,.28-.68.88.88,0,0,0-.23-.69,1.05,1.05,0,0,0-.66-.19h-1.69v1.76Z"/><path class="cls-1" d="M48,112.41a18.72,18.72,0,0,1-7.49-3.35,16.59,16.59,0,0,1-5.1-6.78,28.62,28.62,0,0,1-1.89-11.21V41.16H57.67V22.7H33.52V0H14.45V22.7H0V41.16H14.45V91.07a48.82,48.82,0,0,0,3.16,18.17,35.64,35.64,0,0,0,8.78,13.12A31.81,31.81,0,0,0,40,129.68a43.59,43.59,0,0,0,11.24,1.4,55.61,55.61,0,0,0,6.1-.35l.77-.09V112.82l-.94.08A31.61,31.61,0,0,1,48,112.41ZM138.7,88.8a26.8,26.8,0,0,1-7.8,19.2,25.72,25.72,0,0,1-8.48,5.59,27.8,27.8,0,0,1-10.51,2c-8.23,0-14.58-2.47-18.85-7.34s-6.5-11.58-6.5-19.85V22.7H67.49V87.56a58.58,58.58,0,0,0,2.73,18.33,40.92,40.92,0,0,0,8.12,14.44,36.77,36.77,0,0,0,13.21,9.51,44.21,44.21,0,0,0,17.68,3.37,42.05,42.05,0,0,0,18.12-3.79,38.68,38.68,0,0,0,12-8.78v10.1H158V22.7H138.7ZM248.33,32.91a36.94,36.94,0,0,0-13.21-9.51A44.36,44.36,0,0,0,217.43,20a41.22,41.22,0,0,0-18,3.91,39.83,39.83,0,0,0-12.07,8.87V22.7H168.68v108H188V64.85a28.32,28.32,0,0,1,2-10.71,25.31,25.31,0,0,1,5.59-8.48,26.77,26.77,0,0,1,8.6-5.71A27.84,27.84,0,0,1,215,37.86c8.21,0,14.51,2.56,18.73,7.64s6.41,11.76,6.41,19.77v65.47h19.07V65.88a59.63,59.63,0,0,0-2.73-18.43A41,41,0,0,0,248.33,32.91Zm128.4,48.45a69.48,69.48,0,0,0-4.5-25.7,58.91,58.91,0,0,0-12.16-19.27,53,53,0,0,0-17.51-12.17A52,52,0,0,0,322.19,20,50.52,50.52,0,0,0,301,24.54,55.84,55.84,0,0,0,283.8,36.7a58,58,0,0,0-15.93,40.13A57.17,57.17,0,0,0,272.17,99a55,55,0,0,0,29.24,29.77,54.12,54.12,0,0,0,21.82,4.4c12.51,0,23.31-3.14,32.08-9.34s15.14-15.2,18.9-26.76l.37-1.13H354.25l-.23.5a33,33,0,0,1-12,14.08c-5.13,3.34-11.46,5-18.82,5a34.94,34.94,0,0,1-23.47-9.06,37.9,37.9,0,0,1-8.27-10.8,38.65,38.65,0,0,1-4-13.49h89.27ZM288.64,64.81A36.2,36.2,0,0,1,293.5,54a39.55,39.55,0,0,1,8.08-8.89,34.3,34.3,0,0,1,9.87-5.54,31.18,31.18,0,0,1,21.69.1,33.68,33.68,0,0,1,9.75,5.74,38.88,38.88,0,0,1,7.78,9,40.54,40.54,0,0,1,4.65,10.43Z"/><path class="cls-1" d="M312.18,189.08a12.46,12.46,0,0,1-2.5,4.37,11,11,0,0,1-4.06,2.84,14.2,14.2,0,0,1-5.48,1,13,13,0,0,1-5.15-1,12.62,12.62,0,0,1-4.09-2.76,12.49,12.49,0,0,1-2.69-4.09,13,13,0,0,1-1-5.06h4.68a9.28,9.28,0,0,0,.55,3.2,7.56,7.56,0,0,0,4.2,4.48,8.54,8.54,0,0,0,3.48.67q4.17,0,6.2-2.51a10.23,10.23,0,0,0,2-6.67V158h4.68v25.54A16.88,16.88,0,0,1,312.18,189.08Z"/><path class="cls-1" d="M339.54,185.39l-4.12,11.23H330.3L344.88,158h5.34l14.3,38.61h-5.29l-4.06-11.23Zm7.9-21.59L341.15,181h12.46Z"/><path class="cls-1" d="M388.22,196.62h-4.73V158h16.25a15,15,0,0,1,5.31.87,10.75,10.75,0,0,1,3.89,2.42,10.08,10.08,0,0,1,2.4,3.69,14.24,14.24,0,0,1,0,9.41,10.12,10.12,0,0,1-2.4,3.7,11,11,0,0,1-3.89,2.42,15.24,15.24,0,0,1-5.31.86H388.22Zm0-34.1v14.35h11.52a8.69,8.69,0,0,0,5.56-1.7c1.45-1.12,2.17-2.95,2.17-5.47s-.72-4.35-2.17-5.49a8.81,8.81,0,0,0-5.56-1.69Z"/><path class="cls-1" d="M434.71,185.39l-4.12,11.23h-5.12L440,158h5.34l14.31,38.61H454.4l-4.06-11.23Zm7.89-21.59L436.32,181h12.46Z"/><path class="cls-1" d="M509.37,196.62h-5.23l-20.75-31.43v31.43h-4.73V158H484l20.75,31.38V158h4.67Z"/></g></g></svg>